<?xml version="1.0" encoding="UTF-8" standalone="no"?>
<svg
   xmlns:dc="http://purl.org/dc/elements/1.1/"
   xmlns:cc="http://creativecommons.org/ns#"
   xmlns:rdf="http://www.w3.org/1999/02/22-rdf-syntax-ns#"
   xmlns:svg="http://www.w3.org/2000/svg"
   xmlns="http://www.w3.org/2000/svg"
   xmlns:sodipodi="http://sodipodi.sourceforge.net/DTD/sodipodi-0.dtd"
   xmlns:inkscape="http://www.inkscape.org/namespaces/inkscape"
   inkscape:version="0.92.5 (2060ec1f9f, 2020-04-08)"
   sodipodi:docname="favicon.svg"
   viewBox="0 0 2000 2000.0001"
   height="2000"
   width="2000"
   id="svg10"
   version="1.1">
  <metadata
     id="metadata16">
    <rdf:RDF>
      <cc:Work
         rdf:about="">
        <dc:format>image/svg+xml</dc:format>
        <dc:type
           rdf:resource="http://purl.org/dc/dcmitype/StillImage" />
        <dc:title></dc:title>
      </cc:Work>
    </rdf:RDF>
  </metadata>
  <defs
     id="defs14" />
  <sodipodi:namedview
     inkscape:current-layer="g18"
     inkscape:window-maximized="1"
     inkscape:window-y="28"
     inkscape:window-x="0"
     inkscape:cy="6464.5732"
     inkscape:cx="24840.925"
     inkscape:zoom="0.01"
     showgrid="false"
     id="namedview12"
     inkscape:window-height="997"
     inkscape:window-width="1920"
     inkscape:pageshadow="2"
     inkscape:pageopacity="0"
     guidetolerance="10"
     gridtolerance="10"
     objecttolerance="10"
     borderopacity="1"
     bordercolor="#666666"
     pagecolor="#ffffff" />
  <g
     id="g18"
     inkscape:label="Image"
     inkscape:groupmode="layer"
     transform="translate(-97.665359,410.81799)">
    <rect
       style="opacity:1;fill:#001407;fill-opacity:1;stroke:#00ffff;stroke-width:0;stroke-miterlimit:4;stroke-dasharray:none;stroke-opacity:1"
       id="rect816"
       width="2000"
       height="2000"
       x="97.665359"
       y="-410.81799"
       ry="0" />
    <g
       style="font-style:normal;font-weight:normal;font-size:20px;font-family:'Bitstream Vera Sans';text-align:start;text-anchor:start;fill:#ffffff;fill-opacity:1;stroke:none;stroke-width:1px;stroke-linecap:butt;stroke-linejoin:miter;stroke-opacity:1"
       id="text2931-5"
       transform="matrix(17.954095,0,0,17.954095,-785.65549,-63.559674)">
      <path
         d="m 75.5,42.087919 q 0,-18.53 11.56,-34.3400003 10.03,-13.6 17.34,-13.6 8.16,0 17.68,9.01 12.41,11.7300003 12.41,29.5800003 0,14.62 -10.54,31.11 -10.37,16.49 -18.7,16.49 -8.5,0 -18.87,-12.41 -10.88,-13.09 -10.88,-25.84 z m 16.49,-29.92 q -2.38,2.89 -3.74,6.63 -1.36,3.57 -1.36,6.46 0,10.88 6.8,21.76 8.5,13.6 21.76,13.6 2.04,0 3.06,-0.17 1.36,-2.72 2.04,-5.78 0.68,-3.06 0.68,-6.12 0,-13.43 -7.82,-23.8 -8.33,-11.05 -21.42,-12.58 z"
         style="font-style:normal;font-variant:normal;font-weight:bold;font-stretch:normal;font-size:170px;font-family:CyrillicOld;-inkscape-font-specification:'CyrillicOld Bold';fill:#ffffff;fill-opacity:1"
         id="path4140"
         inkscape:connector-curvature="0" />
    </g>
  </g>
</svg>
